<?xml version="1.0" encoding="utf-8"?>
<!-- Generator: Adobe Illustrator 18.1.0, SVG Export Plug-In . SVG Version: 6.00 Build 0)  -->
<svg version="1.1" id="Слой_1" xmlns="http://www.w3.org/2000/svg" xmlns:xlink="http://www.w3.org/1999/xlink" x="0px" y="0px"
	 viewBox="0 0 30.1 26.9" enable-background="new 0 0 30.1 26.9" xml:space="preserve">
<path fill="#FFFFFF" d="M16.1,4.9C14,3.1,11.3,2.3,8.2,1.4C4.9,0.4,2,0.1,0,0c0.1-0.1,0.2,24.9,0.2,24.9c2.4,0,6.1,0.2,12.9,1.9h3
	L16.1,4.9z M3.3,22.8c0,0-0.1-20-0.1-19.9c1.4,0.1,3.3,0.3,5.6,0.9C10.8,4.4,12.6,5,14,6.2l0,18.9C14,25.1,8,22.7,3.3,22.8z"/>
<path fill="#FFFFFF" d="M14,26.9h3c6.8-1.7,10.5-1.9,12.9-1.9c0,0,0.1-25.1,0.2-24.9c-2,0.1-4.9,0.4-8.2,1.4c-3,0.9-5.8,1.7-7.8,3.6
	L14,26.9z M16,25.1l0-18.9c1.4-1.2,3.2-1.8,5.3-2.4c2.2-0.7,4.2-0.9,5.6-0.9c0-0.1-0.1,19.9-0.1,19.9C22,22.7,16,25.1,16,25.1z"/>
</svg>
