<?xml version="1.0" encoding="utf-8"?>
<!-- Generator: Adobe Illustrator 18.1.0, SVG Export Plug-In . SVG Version: 6.00 Build 0)  -->
<svg version="1.1" id="Слой_1" xmlns="http://www.w3.org/2000/svg" xmlns:xlink="http://www.w3.org/1999/xlink" x="0px" y="0px"
	 viewBox="0 0 563 214.1" enable-background="new 0 0 563 214.1" xml:space="preserve">
<g>
	<path fill="#FEBD00" d="M291.9,214.1c-1.7-4.4-1.1-5.3,3.4-5.4c2.8,0,5.7-0.1,8.5,0c3.4,0.1,4.9-1.6,4.9-4.9c0-14,0-28,0-42
		c0-3.6-1.8-5-5.3-5c-14,0.1-28,0.1-42,0c-3.8,0-5.4,1.6-5.4,5.4c0.1,13.7,0.1,27.4,0,41.1c0,4.1,1.8,5.7,5.7,5.5c3-0.1,6-0.1,8.9,0
		c4.1,0.2,4.7,1.6,2.4,5.3c-5.4,0-10.7,0-16.1,0c-3.6-0.6-5.7-2.7-6.3-6.3c0-16.7,0-33.4,0-50.1c0.6-3.6,2.7-5.7,6.3-6.3
		c17,0,34,0,51,0c4.9,2.8,6.4,7.1,6.2,12.6c-0.3,12.4-0.3,24.9,0,37.4c0.1,5.5-1.4,9.8-6.2,12.6
		C302.6,214.1,297.2,214.1,291.9,214.1z"/>
	<path fill="#FEBE03" d="M562.1,197.9c-2.4,1.1-4.4,0.8-6.2-1.4c-2.6-3.1-5.4-5.9-9-9.7c0,3.6,0,6.1,0,8.7c0,2-1,3.1-2.9,3.2
		c-1.8,0-2.8-1.2-2.8-2.9c-0.1-7.4,0-14.9,0-22.3c0-1.7,0.9-3,2.7-3c1.9,0,3,1.2,3,3.2c0.1,2.6,0,5.2,0,8.9c3.6-3.8,6.5-6.7,9.2-9.8
		c1.9-2.2,3.7-2.7,6-0.8c0.3,0.6,0.2,1.3,0,1.8c-1.1,3-3.2,5.3-5.5,7.5c-2.4,2.3-2.7,4.4,0,6.7c2.1,1.8,4.2,3.8,5.5,6.4
		C562.5,195.5,562.8,197.2,562.1,197.9z"/>
	<path fill="#FEBE02" d="M346.8,180.7c2.1-2.8,4-5.3,5.9-7.7c1.5-2,3.6-2.7,5.9-1.9c2.4,0.8,2.9,2.8,2.9,5c0,6.2,0,12.5,0,18.7
		c0,2-0.5,3.7-2.8,3.8c-2.5,0.1-3.1-1.8-3.1-3.9c0-5,0-10,0-16.1c-2.6,3-4.3,5.1-6.1,7.2c-1.7,2-3.5,2-5.2,0
		c-1.8-2.1-3.5-4.3-6.2-7.4c0,6.1,0,10.9,0,15.7c0,2.2-0.1,4.6-2.9,4.6c-2.8,0-3-2.3-3-4.6c0-5.9,0-11.9,0-17.8
		c0-2.4,0.6-4.4,3.1-5.3c2.7-0.9,4.6,0.3,6.1,2.4C343.2,175.7,344.9,178.1,346.8,180.7z"/>
	<path fill="#FEBE03" d="M400.3,173.5c-0.5,2.1-2.1,3.8-3.4,5.4c-3.6,4.4-6,9.1-5.2,15c0.3,2,0.1,4.6-2.8,4.6
		c-2.8,0-3.2-2.3-2.9-4.5c0.8-5.7-1.1-10.4-4.9-14.6c-0.8-0.9-1.5-1.9-2.1-2.9c-1.1-1.7-3.3-3.5-0.8-5.3c2.7-2,3.9,0.8,5.2,2.5
		c1.4,1.9,2.8,3.8,4.1,5.8c1.1,1.6,1.9,1.5,2.9,0c1.7-2.6,3.5-5.2,5.3-7.7c0.8-1.1,1.8-1.5,3.1-1
		C399.9,171.3,400.3,172.2,400.3,173.5z"/>
	<path fill="#FEBE01" d="M262.2,182.4c0-4.6,0-9.2,0-13.8c0-2.5,0.3-4.7,3.1-5.8c2.8-1,5-0.1,6.8,1.9c3,3.1,5.9,6.3,8.6,9.7
		c1.4,1.7,2.4,2.1,4,0.2c2.7-3.3,5.7-6.5,8.6-9.6c1.8-2,3.9-3.1,6.7-2.1c2.8,1,3,3.4,3,5.8c0,9.2,0,18.5,0,27.7
		c0,1.9,0.1,4.2-2.6,4.4c-3.1,0.1-3-2.3-3-4.4c0-7.4,0-14.9,0-22.3c0-1.1,0.6-2.7-0.7-3.2c-1.6-0.7-2.2,1.1-3,2
		c-2.6,2.7-5.1,5.5-7.5,8.3c-2.6,2.9-4.9,2.8-7.4-0.1c-2.3-2.7-4.8-5.3-7.3-7.9c-1-1-1.7-3-3.4-2.3c-1.3,0.6-0.6,2.4-0.6,3.7
		c-0.1,7.3,0,14.6,0,21.9c0,2.1,0.1,4.5-3,4.4c-2.9-0.1-2.5-2.4-2.5-4.3C262.1,191.7,262.2,187,262.2,182.4z"/>
	<path fill="#FEBE02" d="M295.4,187.6c-0.4,1.6-1.7,2.7-2.8,3.9c-4.5,4.6-8.7,9.3-7.2,16.7c0.4,1.9-0.6,3.7-2.9,3.7
		c-2.1,0-2.8-1.7-2.5-3.4c1.3-6.8-1.9-11.7-6.5-16.1c-0.7-0.7-1.3-1.6-2-2.4c-1.3-1.5-2-3.1-0.1-4.6c1.7-1.4,3-0.3,4.2,1
		c1.8,2,3.6,3.9,5.2,6.1c1.3,1.7,2.2,2,3.7,0.2c1.9-2.3,3.9-4.5,5.9-6.7c1-1.1,2.1-1.7,3.5-0.8C294.8,185.6,295.4,186.4,295.4,187.6
		z"/>
	<path fill="#FEBD01" d="M511.2,169.7c-8.1-0.2-15,6.8-15,15.2c0,8.1,6.7,14.9,14.7,14.9c8.1,0.1,14.7-6.4,14.9-14.6
		C526,176.7,519.5,169.8,511.2,169.7z M511.1,194.2c-5,0.1-9.2-4.2-9.2-9.5c0-5.4,4-9.3,9.3-9.3c5.1,0.1,8.9,3.9,9,9.1
		C520.3,189.8,516.2,194.2,511.1,194.2z"/>
	<path fill="#FEBD01" d="M467.3,169.6c-8.3,0-14.8,6.8-14.7,15.3c0.1,8.3,6.5,14.8,14.7,14.8c8.2,0,15-7,14.9-15.2
		C482.1,176.4,475.3,169.6,467.3,169.6z M467.2,194.2c-5.1-0.1-9.1-4.4-9-9.7c0.1-5.3,4.2-9.2,9.5-9.1c5,0.1,8.8,4.1,8.8,9.3
		C476.5,190,472.3,194.3,467.2,194.2z"/>
</g>
<path fill="#FEBE02" d="M434.2,184.8c-1.3-1-1.3-1.6-0.5-3.1c2.8-5,0.4-9.9-5.3-11c-2.6-0.5-5.3-0.2-8-0.3c-2.8-0.1-4.1,1.3-4,4.1
	c0,3.3,0,6.5,0,9.8c0,0.9,0,1.8,0,2.7c0.1,13.5-1.8,11.7,12.3,11.8c3.5,0,6.6-1.2,7.9-4.7C437.7,190.7,437.4,187.3,434.2,184.8z
	 M425.1,175.6c2.4-0.1,4.6,0,4.6,3c0,2.8-2.2,2.6-4.2,2.8c-2,0.1-3.4-0.2-3.4-2.8C422.2,176.3,422.9,175.2,425.1,175.6z
	 M425.3,193.7c-1.6,0.2-3.2-0.1-3.2-3.4c0-3.4,1.7-3.4,4.1-3.4c2.6,0.1,5.4,0,5.3,3.7C431.4,194.1,428.5,193.5,425.3,193.7z"/>
<g>
	<path fill-rule="evenodd" clip-rule="evenodd" fill="#FFFFFF" d="M32.5,164.4H23c-0.2,4-0.4,7.7-0.6,11c-0.2,3.3-0.5,6.3-0.9,8.9
		c-0.4,2.6-0.8,5-1.4,7c-0.6,2-1.4,3.8-2.3,5.3c-0.6,1-1.3,1.8-2,2.4c-0.7,0.6-1.5,1.1-2.3,1.5c-0.8,0.4-1.6,0.6-2.4,0.8
		c-0.8,0.1-1.5,0.2-2.2,0.2c-1,0-1.8-0.1-2.4-0.2c-0.7-0.1-1.3-0.4-1.9-0.7l1-7.5c0.3,0.1,0.5,0.1,0.8,0.2c0.3,0,0.5,0.1,0.8,0.1
		c0.7,0,1.3-0.2,2-0.5c0.7-0.3,1.2-0.9,1.7-1.7c0.6-0.9,1.2-2.3,1.7-4.1c0.5-1.8,0.9-4.1,1.2-6.9c0.4-2.8,0.6-6.1,0.9-10
		c0.2-3.9,0.4-8.4,0.4-13.6h26.3v44.5h-8.7V164.4"/>
	<polyline fill-rule="evenodd" clip-rule="evenodd" fill="#FFFFFF" points="67,186.6 67.3,182.1 67.1,182.1 64.4,186.7 53.1,201.1 
		47.9,201.1 47.9,169.3 56.1,169.3 56.1,184.5 55.8,188.8 56,188.8 58.6,184.3 70.1,169.3 75.3,169.3 75.3,201.1 67,201.1 67,186.6 
			"/>
	<polyline fill-rule="evenodd" clip-rule="evenodd" fill="#FFFFFF" points="106.6,176.6 97.7,176.6 97.7,201.1 89.2,201.1 
		89.2,176.6 80.1,176.6 80.1,169.3 106.6,169.3 106.6,176.6 	"/>
	<path fill-rule="evenodd" clip-rule="evenodd" fill="#EF4E23" d="M112,157.1c1.8-0.3,3.7-0.6,5.9-0.8c2.1-0.2,4.3-0.3,6.4-0.3
		c2.2,0,4.4,0.2,6.6,0.5c2.2,0.4,4.2,1.1,6,2.2c1.8,1.1,3.2,2.6,4.4,4.5c1.1,1.9,1.7,4.4,1.7,7.5c0,2.8-0.5,5.2-1.5,7.1
		c-1,1.9-2.3,3.5-3.9,4.7c-1.6,1.2-3.4,2.1-5.5,2.7c-2.1,0.6-4.2,0.8-6.4,0.8h-1c-0.5,0-1,0-1.5,0c-0.5,0-1-0.1-1.5-0.1
		c-0.5,0-0.8-0.1-1-0.1v15.3H112V157.1L112,157.1L112,157.1z M125,163.5c-0.8,0-1.7,0-2.4,0.1c-0.8,0.1-1.4,0.1-1.8,0.2v14.4
		c0.2,0,0.4,0.1,0.8,0.1c0.3,0,0.7,0.1,1.1,0.1c0.4,0,0.8,0,1.1,0h0.8c1.1,0,2.3-0.1,3.4-0.3c1.1-0.2,2.1-0.6,3-1.2
		c0.9-0.6,1.6-1.4,2.1-2.4c0.5-1,0.8-2.4,0.8-4c0-1.4-0.3-2.6-0.8-3.5c-0.5-0.9-1.2-1.6-2-2.2c-0.8-0.5-1.8-0.9-2.8-1.1
		C127.2,163.6,126.1,163.5,125,163.5L125,163.5L125,163.5z"/>
	<path fill-rule="evenodd" clip-rule="evenodd" fill="#EF4E23" d="M171.4,198.4c-1.3,1-3,1.9-5.2,2.6c-2.2,0.7-4.5,1-7,1
		c-5.1,0-8.9-1.5-11.3-4.5c-2.4-3-3.6-7.1-3.6-12.3c0-5.6,1.3-9.8,4-12.6c2.7-2.8,6.4-4.2,11.3-4.2c1.6,0,3.2,0.2,4.7,0.6
		s2.9,1.1,4.1,2.1c1.2,1,2.1,2.3,2.9,3.9c0.7,1.7,1.1,3.7,1.1,6.2c0,0.9-0.1,1.8-0.2,2.9c-0.1,1-0.3,2.1-0.5,3.2h-19.2
		c0.1,2.7,1,4.7,2.2,6c1.2,1.4,3.3,2,6.1,2c1.7,0,3.3-0.3,4.7-0.8c1.7-0.6,3.4-1.3,3.4-1.3L171.4,198.4L171.4,198.4L171.4,198.4z
		 M159.6,174.9c-2.6,0.1-3.8,0.7-4.9,2c-1.1,1.3-1.7,3-1.9,5.1l11.9,0.1c0.2-2.3,0-4.1-0.9-5.3C162.9,175.7,161.4,174.9,159.6,174.9
		L159.6,174.9L159.6,174.9z"/>
	<path fill-rule="evenodd" clip-rule="evenodd" fill="#EF4E23" d="M199.3,175.5c0,0-2.5-0.5-4.5-0.5c-5.7,0-9.4,3.2-9.4,10.4
		c0,6.7,2.8,10,8.7,10c1.9,0,5.7-0.5,5.7-0.5l1.1,5.7c-1.6,0.5-4.6,1.2-8.3,1.2c-11.5,0-15.8-8.4-15.8-16.9c0-8.6,5-16.3,16.5-16.3
		c2.1,0,4.7,0.2,7.2,0.9L199.3,175.5"/>
	<path fill-rule="evenodd" clip-rule="evenodd" fill="#EF4E23" d="M217,173.7c0,2.6-2.1,4.7-4.7,4.7c-2.6,0-4.7-2.1-4.7-4.7
		c0-2.6,2.1-4.7,4.7-4.7C214.9,169,217,171.1,217,173.7"/>
	<path fill-rule="evenodd" clip-rule="evenodd" fill="#EF4E23" d="M217,196.9c0,2.6-2.1,4.7-4.7,4.7c-2.6,0-4.7-2.1-4.7-4.7
		c0-2.6,2.1-4.7,4.7-4.7C214.9,192.2,217,194.3,217,196.9"/>
</g>
<g>
	<path fill="#FFFFFF" d="M544.6,127.6c-6.4,0-12-1.7-16.1-5l-0.4-0.3l-0.4,0.3c-5.1,3.3-10.9,5-17.2,5c-9,0-16.7-3.3-22.4-9.4
		l-1.2-1.3v3.9c-1,0.8-5,3.9-7.7,4.9c-3.3,1.2-6.9,1.8-10.7,1.8c-10,0-17.5-3.9-21-10.9l-0.6-1.2l-0.6,1.3
		c-3.2,7-9.9,10.9-18.9,10.9c-8.7,0-15.5-3.8-18.7-10.5l-0.6-1.2l-0.6,1.2c-3.3,6.8-10,10.5-18.8,10.5c-6.4,0-11.8-2-15.5-5.9
		l-0.4-0.4l-0.5,0.3c-1.6,1.2-4.6,3.3-6.7,4.1c-3.3,1.2-6.9,1.8-10.7,1.8c-4.5,0-10.9-0.9-16.1-5l-0.4-0.3l-0.4,0.3
		c-5.1,3.3-11.1,5-17.2,5c-9.8,0-17.3-3.2-22.4-9.4l-1.2-1.4v4.1c-1,0.8-5,3.9-7.7,4.9c-3.3,1.2-6.9,1.8-10.7,1.8
		c-6.4,0-12-1.7-16.1-5l-0.4-0.3l-0.4,0.3c-5.1,3.3-10.9,5-17.2,5c-9,0-16.7-3.3-22.4-9.4l-1.2-1.3v4c-1.1,0.8-5.2,3.8-7.8,4.8
		c-3.3,1.2-6.9,1.8-10.8,1.8c-10.3,0-18-4.1-21.5-11.6l-0.6-1.4l-0.6,1.4c-3.1,7.3-10.2,11.5-19.4,11.5c-8.5,0-15.1-3.5-18.5-9.9
		l-0.4-0.8l-0.6,0.6c-6.4,6.4-16.4,10-27.5,10c-16.4,0-29-6.9-36.6-19.9l-0.6-1.1l-0.6,1.1c-6.4,12.6-20.1,19.9-37.6,19.9
		C16.7,127.6,0,116.2,0,101.7c0-8.8,6.3-15.2,15-15.2l2.7,0l-1.7-1.2c-8.7-6.2-13-15.2-13-27.4c0-20.7,14.9-33.6,38.8-33.6
		c16.3,0,30.5,7.7,34.5,18.8l0.5,1.3l0.7-1.2c7.6-12.4,20.1-18.9,35.9-18.9c9.6,0,18.5,2.8,24.9,7.8l1.1,0.8V20.5
		c0-12.5,8.2-20.5,20.9-20.5c12.8,0,21,8.1,21,20.7v5.4l0.9-0.3c3.1-1,6.3-1.5,9.7-1.5c13.9,0,23.4,6.4,27.3,18.7l0.6,1.8l0.7-1.7
		c4.4-10.9,19.2-18.6,36-18.6c16.3,0,27.9,4.9,34.5,14.6l0.8,1.2l0.4-1.4c2.3-9.1,9.9-14.5,20.4-14.5c9,0,16,4,19.2,11.1l0.6,1.3
		l0.6-1.3c3.2-7,10.2-11.1,19.2-11.1c7.8,0,14.1,3,17.7,8.5l0.6,0.9l0.6-0.9c3.5-5.5,9.8-8.5,17.5-8.5c5.6,0,10.3,1.5,13.9,4.4
		l0.4,0.3l0.4-0.3c4.8-3,10.2-4.5,16.2-4.5c7.4,0,13.6,1.9,18.4,5.8l0.4,0.3l0.4-0.3c3.8-2.6,10.1-5.8,19-5.8
		c14,0,23.4,6.5,27.4,18.7l0.6,1.8l0.7-1.7c4.4-11,19.2-18.6,36-18.6c27,0,40.7,12.3,40.7,36.6v59.9c-1,0.8-5,3.9-7.7,4.9
		C552.1,127,548.5,127.6,544.6,127.6"/>
	<linearGradient id="SVGID_1_" gradientUnits="userSpaceOnUse" x1="281.5097" y1="121.0818" x2="281.5097" y2="6.4991">
		<stop  offset="0" style="stop-color:#12266D"/>
		<stop  offset="0.2" style="stop-color:#132872"/>
		<stop  offset="0.4" style="stop-color:#162E85"/>
		<stop  offset="0.5" style="stop-color:#193392"/>
		<stop  offset="0.6" style="stop-color:#1B379D"/>
		<stop  offset="0.7" style="stop-color:#1E3BAC"/>
		<stop  offset="0.8" style="stop-color:#203FB7"/>
		<stop  offset="0.9" style="stop-color:#2343C3"/>
		<stop  offset="1" style="stop-color:#2547CC"/>
	</linearGradient>
	<path fill="url(#SVGID_1_)" d="M103.3,75.9c0-21.1,6-27.6,13.1-27.6c3.9,0,6,1.1,9,3.9c2.6,2.6,4.8,3.8,7.8,3.8
		c4.6,0,6.8-3.5,6.8-7.4c0-8.4-9.6-17.8-26.5-17.8c-21.9,0-36.5,14.8-36.5,45.3c0,30.2,14.6,45,36.5,45c17,0,26.5-9.4,26.5-17.7
		c0-3.9-2.2-7.4-6.8-7.4c-2.9,0-5.2,1.2-7.8,3.8c-2.8,2.8-5.3,3.8-9.2,3.8C109.1,103.5,103.3,97,103.3,75.9 M479.3,55.3
		c0-15.4-6.8-24.5-21.7-24.5c-14.1,0-19.9,9.9-19.9,9.9c-2.1-4.6-7.4-9.9-18.3-9.9c-13.1,0-18.3,9.3-18.3,9.3
		c-0.7-4.5-3.9-9.3-12.6-9.3c-8.6,0-13.1,4.7-13.1,12.8v64.6c0,8.1,4.6,12.8,13.2,12.8c8.7,0,13.3-4.7,13.3-13V56.5
		c0-4.7,1.9-7.3,6-7.3c4.2,0,6.2,2.6,6.2,7.4v51.6c0,8.1,4.6,12.8,13.2,12.8c8.7,0,13.2-4.7,13.2-13V56.5c0-4.7,1.9-7.3,6-7.3
		c4.2,0,6.3,2.6,6.3,7.4v50.3c0,9.3,5.2,14.1,15.7,14.1c7.1,0,10.7-2.7,10.7-2.7V55.3z M71.7,92.6c0-31.6-38.2-22.2-38.2-37.7
		c0-5.1,3.4-8,9.1-8c4.2,0,8.7,1.3,12.5,5.3c2.5,2.6,5.1,3.8,8,3.8c4.6,0,6.7-3.3,6.7-7.2c0-8.4-10.3-17.9-28.1-17.9
		c-20.3,0-31.1,11-31.1,27.1c0,32.9,37,22.8,37,38.2c0,5.3-3.3,8.4-10.4,8.4c-5.3,0-10-2.1-14-6.2c-2.6-2.7-5.1-4-8.3-4
		c-4.9,0-7.3,3.3-7.3,7.5c0,8.6,11.2,19.3,30.4,19.3C59.5,121.1,71.7,108.9,71.7,92.6 M245.4,92c0-8.4,3.4-13.8,11.2-13.8
		c3.7,0,7.1,1.9,7.1,1.9v14c0,5.7-3.3,9.3-9.3,9.3C248.3,103.4,245.4,99,245.4,92 M289.5,61c0-20-10.6-30.1-33-30.1
		c-18.6,0-29.7,9.7-29.7,17.9c0,3.9,2.1,7.2,6.7,7.2c2.9,0,5.5-1.2,8-3.8c3.8-3.9,7.3-4.7,11.6-4.7c9,0,10.7,5.5,10.7,13v6.6
		c0,0-5.1-2.2-11.8-2.2c-19.2,0-31.1,10-31.1,28.6c0,16.7,9.5,27.6,23.8,27.6c13.1,0,18.9-9.3,18.9-9.3c1.9,6.3,7.3,9.3,15.2,9.3
		c7.1,0,10.7-2.7,10.7-2.7V61z M320.8,121.1c13,0,18.9-9.3,18.9-9.3c1.9,6.3,7.4,9.3,15.2,9.3c7.1,0,10.7-2.7,10.7-2.7V43.6
		c0-8.1-4.7-12.8-13.3-12.8c-8.7,0-13.4,4.7-13.4,13v51.8c0,4.7-2.1,7.3-6.2,7.3c-4.2,0-6.5-2.6-6.5-7.4V43.6
		c0-8.1-4.8-12.8-13.4-12.8c-8.7,0-13.4,4.7-13.4,13v52.9C299.2,112,305.9,121.1,320.8,121.1 M186.6,106.7c0,9.4,5.3,14.4,15.9,14.4
		c7.2,0,11-2.7,11-2.7V55.3c0-15.4-6.7-24.5-21.6-24.5c-12.5,0-18.3,8.8-18.3,8.8V19.5c0-8.3-4.6-13-13.3-13
		c-8.6,0-13.2,4.7-13.2,12.9v88.9c0,8.1,4.7,12.8,13.3,12.8c8.7,0,13.4-4.7,13.4-13V56c0-4.7,2.1-7.3,6.2-7.3c4.2,0,6.5,2.6,6.5,7.4
		V106.7z M511.2,92c0-8.4,3.4-13.8,11.2-13.8c3.7,0,7.1,1.9,7.1,1.9v14c0,5.7-3.3,9.3-9.3,9.3C514.1,103.4,511.2,99,511.2,92
		 M555.3,61c0-20-10.6-30.1-33-30.1c-18.6,0-29.7,9.7-29.7,17.9c0,3.9,2.1,7.2,6.7,7.2c2.9,0,5.5-1.2,8-3.8
		c3.8-3.9,7.3-4.7,11.5-4.7c9,0,10.7,5.5,10.7,13v6.6c0,0-5.1-2.2-11.8-2.2c-19.2,0-31.1,10-31.1,28.6c0,16.7,9.6,27.6,23.8,27.6
		c13.1,0,18.9-9.3,18.9-9.3c1.9,6.3,7.3,9.3,15.2,9.3c7.1,0,10.7-2.7,10.7-2.7V61z"/>
</g>
</svg>
